<svg xmlns="http://www.w3.org/2000/svg" width="24" height="24" fill="none" viewBox="0 0 24 24" aria-hidden="true">
        <mask id="map-pin-mask" width="24" height="24" x="0" y="0" maskUnits="userSpaceOnUse" style="mask-type:alpha">
          <path fill="#fff" d="M0 0h24v24H0z"></path>
        </mask>
        <g mask="url(#map-pin-mask)">
          <path fill="currentColor" d="M12 22q-4.024-3.425-6.012-6.363Q4 12.7 4 10.2q0-3.75 2.412-5.975T12 2t5.587 2.225T20 10.2q0 2.5-1.988 5.438T12 22m0-10q.825 0 1.413-.587A1.93 1.93 0 0 0 14 10q0-.825-.587-1.412A1.93 1.93 0 0 0 12 8q-.825 0-1.412.588A1.93 1.93 0 0 0 10 10q0 .825.588 1.413Q11.175 12 12 12"></path>
        </g>
      </svg>