<svg width="173" height="83" viewBox="0 0 173 83" fill="none" xmlns="http://www.w3.org/2000/svg">
<g clip-path="url(#clip0_60_388)">
<path d="M8.88165 16.2081C7.76015 13.3568 8.24702 10.0783 9.28007 7.32095C10.367 4.41948 12.2596 1.52596 15.0883 0C15.2286 3.05758 14.2949 6.07842 13.2748 8.80241C12.3573 11.2525 11.2316 13.8628 9.37275 15.889C9.08713 17.4243 8.86823 18.9554 8.71429 20.4795C9.33039 18.8694 10.3294 17.4019 11.5759 16.2219C13.1807 14.7025 15.5679 13.5301 17.8088 14.2234C17.1524 16.7014 15.6563 19.0768 13.8845 20.7431C12.4899 22.0547 10.6489 23.7353 8.48039 23.8014C8.39107 26.0442 8.44155 28.2664 8.62603 30.4585C8.93196 28.8543 9.58741 27.3437 10.5345 26.2188C11.8355 24.6731 13.7646 22.7846 16.2283 23.1005C16.0938 25.6085 15.0937 28.1781 13.7011 30.109C12.5944 31.6435 11.1335 33.5991 9.05976 34.1043C9.39182 36.2583 9.85433 38.3765 10.4411 40.4493C10.4468 38.8622 10.7972 37.3044 11.4924 36.055C12.4721 34.2931 13.998 32.0959 16.4645 31.9241C16.826 34.3846 16.3361 37.0743 15.3479 39.2136C14.5581 40.9236 13.5051 43.1042 11.5857 44.0064C12.3917 46.2365 13.3455 48.4042 14.4391 50.4965C14.0552 48.6931 14.0705 46.7927 14.5249 45.083C15.1511 42.7257 16.7054 40.2497 19.2009 39.5311C20.083 42.1334 19.9614 45.0377 19.4489 47.6828C19.0272 49.8606 18.1985 52.4184 16.3411 53.8331C17.5554 55.7935 18.8988 57.6749 20.3639 59.4651C19.5767 57.7094 19.1855 55.7892 19.3954 54.0312C19.7012 51.4702 20.4205 48.7305 23.0355 47.3651C24.519 49.9257 24.8628 52.7984 24.9888 55.6358C25.0907 57.9296 24.7604 60.7588 23.1679 62.6249C24.9196 64.4468 26.8097 66.1521 28.8285 67.7245C27.5252 66.0519 26.6125 64.0892 26.4192 62.1483C26.1463 59.4059 26.2798 56.387 28.7125 54.3745C30.7931 56.5484 32.0347 59.7499 32.6432 62.5306C33.1812 64.9892 33.7429 67.8991 32.4619 70.3187C35.0311 71.9963 37.7738 73.4744 40.6737 74.7261C38.6332 73.2715 36.9629 71.2758 36.1671 69.2153C35.1243 66.5143 34.4793 63.2958 36.5106 60.5907C39.2322 62.3346 41.2324 65.3099 42.8083 68.0234C44.1605 70.3519 45.5603 73.5655 44.8658 76.3386C46.4713 76.8836 48.1184 77.3622 49.8048 77.7705L49.7045 78.1846C48.0117 77.7747 46.3584 77.2945 44.7463 76.748C43.6168 80.0869 39.9169 81.1899 36.9247 81.6769C32.6613 82.3708 27.5849 81.0264 23.9451 78.3181C25.8661 75.6022 29.7857 75.3267 32.7411 75.1189L32.7796 75.1162C36.0174 74.8886 39.5192 75.1927 42.7751 76.0389C39.0138 74.6066 35.4943 72.8057 32.249 70.6884L32.2011 70.764C30.4228 73.6487 26.8523 73.7612 24.0497 73.5788C20.2467 73.3312 15.856 71.018 13.3148 67.8204C15.705 65.7224 19.2355 66.3096 21.971 66.7645L21.9842 66.7666C25.0373 67.2743 28.3736 68.3819 31.1741 70.0873C30.9073 69.8772 30.6462 69.6548 30.3926 69.4217C27.6698 67.4797 25.1581 65.3074 22.8789 62.9389C22.8524 62.9654 22.8256 62.9917 22.7986 63.0178C20.5824 65.2481 17.3547 64.6641 14.8358 63.9383C11.465 62.967 7.96916 60.0367 6.29388 56.6728C8.88994 55.2176 11.9937 56.4167 14.4079 57.3652C17.0576 58.4062 19.8611 60.0715 22.0167 62.1944C21.7945 61.9139 21.5825 61.621 21.3821 61.3177C19.3785 59.0556 17.5761 56.6332 15.9916 54.0777L15.9121 54.1275C13.405 55.746 10.5645 54.5739 8.31322 53.4213C5.26083 51.8586 2.80793 48.4241 1.74804 45.0466C4.45585 44.179 7.13117 45.8819 9.21087 47.2305C11.4855 48.7055 13.7895 50.8091 15.3711 53.2215C15.2549 52.9838 15.1467 52.7408 15.0469 52.4933C13.5274 49.8411 12.2364 47.0569 11.1914 44.1687L11.1375 44.1871L11.1331 44.1887C8.85358 45.0556 6.31507 43.7078 4.66009 42.2297C2.3599 40.1755 0.738641 37.0175 0.358571 33.9322C2.7352 33.6242 4.97432 35.4636 6.50519 37.0325C8.26732 38.8382 9.84886 40.9723 10.8212 43.3428C10.7502 43.0853 10.6893 42.8238 10.6381 42.5596C9.75335 39.8455 9.08307 37.0464 8.64121 34.1849L8.60679 34.1891L8.59514 34.1911C6.18514 34.5935 3.95697 32.7606 2.62575 30.9818C0.758059 28.4856 -0.204739 25.0309 0.0365787 21.8996C2.43722 22.0676 4.26519 24.3522 5.4506 26.2003C6.82259 28.3397 7.96033 30.761 8.45868 33.2941C8.4435 33.0926 8.43449 32.8899 8.43132 32.6866C8.06537 29.7742 7.93491 26.8021 8.05425 23.7933L8.04736 23.7929C5.59712 23.7046 3.78627 21.4288 2.85136 19.4102C1.51361 16.5214 1.29824 12.8699 2.19113 9.79259C4.52646 10.4483 5.82837 13.1281 6.59681 15.1909C7.48282 17.5693 8.1012 20.1633 8.10615 22.7424C8.2336 20.5787 8.49028 18.3979 8.88165 16.2081Z" fill="white"/>
<path d="M57.1384 10.8701V21.2007C57.1384 25.7443 53.0249 27.9304 46.7904 27.9304C40.9629 27.9304 36.7852 25.7658 36.7852 20.6649V10.8701H42.5912V20.6649C42.5912 22.4866 44.1551 23.6225 47.026 23.6225C49.7685 23.6225 51.3968 22.4437 51.3968 20.6862V10.8701H57.1384Z" fill="white"/>
<path d="M76.4777 23.2153V27.6946H60.4307V10.8701H66.2368V23.2153H76.4777Z" fill="white"/>
<path d="M93.7311 15.0924V10.8701H73.6562V15.0924H80.7478V27.6946H86.6182V15.0924H93.7311Z" fill="white"/>
<path fill-rule="evenodd" clip-rule="evenodd" d="M114.326 12.5849C115.097 13.3778 115.463 14.471 115.463 15.9925C115.463 17.3 115.141 18.4145 114.605 19.1645C114.005 19.979 113.083 20.6649 111.948 20.8364L117.027 27.6946H110.642L106.463 21.7578H101.258V27.6946H95.5371V10.8701H108.927C111.584 10.8701 113.32 11.5131 114.326 12.5849ZM109.699 17.4072C109.849 17.1499 109.891 16.807 109.891 16.5285C109.891 16.2069 109.849 15.8639 109.699 15.6497C109.399 15.0924 108.799 14.9425 107.898 14.9425H101.279V18.0073H108.006C108.927 18.0073 109.485 17.8358 109.699 17.4072Z" fill="white"/>
<path fill-rule="evenodd" clip-rule="evenodd" d="M124.757 24.5871H133.841L135.319 27.6946H141.511L133.027 10.8701H126.107L117.131 27.6946H123.193L124.757 24.5871ZM132.019 20.8148H126.642L128.764 16.7642L129.407 15.221L130.007 16.7427L132.019 20.8148Z" fill="white"/>
<path fill-rule="evenodd" clip-rule="evenodd" d="M113.713 30.8628C110.119 30.8628 108.229 32.5669 108.229 35.0711C108.229 37.8975 110.213 39.3313 113.713 39.3313C117.567 39.3313 119.188 37.6688 119.188 35.0711C119.188 32.4318 117.359 30.8628 113.713 30.8628ZM113.713 37.2428C111.667 37.2428 111.074 36.4012 111.074 35.1023C111.074 33.8243 111.719 32.9826 113.703 32.9826C115.874 32.9826 116.361 33.9281 116.361 35.1023C116.361 36.3493 115.77 37.2428 113.713 37.2428Z" fill="white"/>
<path d="M102.903 39.2074V34.3757H97.4814V36.1318H100.379C100.359 36.2669 100.255 36.5267 100.12 36.6824C99.8185 37.0358 99.0186 37.3475 97.9799 37.3475C96.8997 37.3475 96.2038 37.0669 95.8299 36.6305C95.5807 36.3084 95.4352 35.8512 95.4352 35.1655C95.4352 34.4485 95.5807 33.9602 95.861 33.6381C96.2661 33.1809 96.9516 32.9835 97.9593 32.9835C98.8629 32.9835 99.4861 33.1911 99.777 33.4509C99.9639 33.6068 100.109 33.8251 100.14 33.9704H102.831C102.82 33.7107 102.737 33.2951 102.592 32.9939C101.948 31.6846 100.452 30.9053 97.9074 30.9053C95.6949 30.9053 94.2096 31.5806 93.3891 32.599C92.8489 33.2951 92.5996 34.1679 92.5996 35.1446C92.5996 36.2254 92.8904 37.1501 93.3682 37.7632C94.1783 38.8127 95.6222 39.3321 97.3568 39.3321C98.8837 39.3321 99.9327 38.9685 100.598 38.4178L100.67 39.2074H102.903Z" fill="white"/>
<path d="M74.6078 34.2716C76.7162 34.5001 77.6199 35.2483 77.6199 36.6719C77.6199 38.3967 75.9372 39.3317 72.6237 39.3317C69.5389 39.3317 68.2094 38.459 67.7003 37.3161C67.5861 37.0459 67.5342 36.7134 67.5029 36.5055H70.4944C70.5153 36.6302 70.588 36.8172 70.6918 36.9419C70.941 37.2433 71.6369 37.4199 72.8211 37.4199C74.3481 37.4199 74.7116 37.2016 74.7116 36.7965C74.7116 36.36 74.3377 36.2666 72.9561 36.1211C72.4057 36.0691 71.5331 35.986 71.1697 35.9549C68.5314 35.7158 67.555 34.8949 67.555 33.4922C67.555 32.0375 69.2792 30.9258 72.4264 30.9258C75.2205 30.9258 76.5189 31.757 77.0591 32.7961C77.2252 33.1078 77.329 33.461 77.3602 33.7103H74.3687C74.3583 33.5961 74.3168 33.4818 74.2026 33.3363C73.974 33.035 73.3923 32.8376 72.3536 32.8376C70.8891 32.8376 70.5048 33.0142 70.5048 33.3882C70.5048 33.8039 70.9931 33.8975 72.6237 34.0741C73.2573 34.1261 74.2649 34.2299 74.6078 34.2716Z" fill="white"/>
<path fill-rule="evenodd" clip-rule="evenodd" d="M44.787 31.7464C45.3374 32.1828 45.649 32.9206 45.649 33.9908C45.649 34.8637 45.431 35.5182 45.0154 35.9754C44.4546 36.6196 43.5301 36.9106 42.3253 36.921C41.9512 36.9315 38.7521 36.921 38.7521 36.921V39.2069H35.958V31.0503H42.2836C43.4055 31.0503 44.2572 31.2788 44.787 31.7464ZM42.72 34.6246C42.803 34.4793 42.8446 34.2921 42.8446 34.0323C42.8446 33.7623 42.7926 33.5336 42.6992 33.4089C42.5227 33.1491 42.1902 33.0245 41.6501 33.0245H38.7313V35.0195H41.6292C42.2109 35.0195 42.5537 34.8844 42.72 34.6246Z" fill="white"/>
<path fill-rule="evenodd" clip-rule="evenodd" d="M55.8691 31.882C56.2432 32.2665 56.4197 32.7964 56.4197 33.5341C56.4197 34.1679 56.2638 34.7083 56.0041 35.0719C55.7134 35.4667 55.2668 35.7993 54.7162 35.8824L57.1779 39.2074H54.0826L52.0571 36.3292H49.5331V39.2074H46.7598V31.0508H53.2517C54.5396 31.0508 55.381 31.3625 55.8691 31.882ZM53.6256 34.22C53.6983 34.0953 53.719 33.9289 53.719 33.7938C53.719 33.6381 53.6983 33.4717 53.6256 33.3679C53.4801 33.0977 53.1894 33.0249 52.7532 33.0249H49.5435V34.5108H52.8051C53.2517 34.5108 53.5218 34.4276 53.6256 34.22Z" fill="white"/>
<path d="M66.6622 39.2074V37.1813H60.8145V36.1214H66.4234V34.1368H60.8145V33.0873H66.5895V31.0508H58.0723V39.2074H66.6622Z" fill="white"/>
<path d="M87.7266 33.0977V31.0508H77.9941V33.0977H81.4321V39.2074H84.2781V33.0977H87.7266Z" fill="white"/>
<path d="M91.4697 31.0508V39.2074H88.6133V31.0508H91.4697Z" fill="white"/>
<path d="M107.1 31.0508V39.2074H104.243V31.0508H107.1Z" fill="white"/>
<path d="M130.209 31.0503V36.0585C130.209 38.2614 128.214 39.3213 125.192 39.3213C122.367 39.3213 120.341 38.2718 120.341 35.7988V31.0503H123.156V35.7988C123.156 36.6819 123.914 37.2327 125.307 37.2327C126.636 37.2327 127.425 36.6613 127.425 35.8092V31.0503H130.209Z" fill="white"/>
<path d="M141.423 36.6719C141.423 35.2483 140.519 34.5001 138.411 34.2716C138.067 34.2299 137.061 34.1261 136.427 34.0741C134.796 33.8975 134.307 33.8039 134.307 33.3882C134.307 33.0142 134.692 32.8376 136.157 32.8376C137.195 32.8376 137.777 33.035 138.005 33.3363C138.12 33.4818 138.16 33.5961 138.171 33.7103H141.163C141.131 33.461 141.027 33.1078 140.861 32.7961C140.321 31.757 139.024 30.9258 136.229 30.9258C133.082 30.9258 131.357 32.0375 131.357 33.4922C131.357 34.8949 132.335 35.7158 134.972 35.9549L135.142 35.9699L135.424 35.9957L136.759 36.1211C138.141 36.2666 138.513 36.36 138.513 36.7965C138.513 37.2016 138.152 37.4199 136.625 37.4199C135.44 37.4199 134.744 37.2433 134.494 36.9419C134.391 36.8172 134.317 36.6302 134.298 36.5055H131.306C131.337 36.7134 131.389 37.0459 131.503 37.3161C132.012 38.459 133.341 39.3317 136.427 39.3317C139.74 39.3317 141.423 38.3967 141.423 36.6719Z" fill="white"/>
<path fill-rule="evenodd" clip-rule="evenodd" d="M68.788 42.3301C66.4523 42.3301 65.2236 43.4377 65.2236 45.0652C65.2236 46.902 66.513 47.8339 68.788 47.8339C71.2926 47.8339 72.3456 46.7534 72.3456 45.0652C72.3456 43.3499 71.1575 42.3301 68.788 42.3301ZM68.788 46.4765C67.4582 46.4765 67.0733 45.9295 67.0733 45.0853C67.0733 44.2548 67.4919 43.7077 68.7813 43.7077C70.1921 43.7077 70.5095 44.3223 70.5095 45.0853C70.5095 45.8957 70.1247 46.4765 68.788 46.4765Z" fill="white"/>
<path d="M55.8008 46.1056C55.8008 45.1804 55.2135 44.694 53.8431 44.5455C53.6203 44.5185 52.9656 44.451 52.5537 44.4173C51.4938 44.3023 51.1766 44.2416 51.1766 43.9716C51.1766 43.7284 51.4264 43.6136 52.3782 43.6136C53.0533 43.6136 53.4312 43.7418 53.5799 43.9377C53.654 44.0323 53.681 44.1065 53.6879 44.1808H55.6321C55.6118 44.0187 55.5443 43.7892 55.4363 43.5866C55.0852 42.9113 54.2413 42.3711 52.4254 42.3711C50.3801 42.3711 49.2595 43.0935 49.2595 44.039C49.2595 44.9508 49.8939 45.4843 51.6086 45.6395C51.8449 45.6598 52.412 45.7139 52.7698 45.7476C53.6676 45.8421 53.9105 45.903 53.9105 46.1866C53.9105 46.4499 53.6743 46.5917 52.6821 46.5917C51.9124 46.5917 51.4601 46.4769 51.2981 46.2811C51.2306 46.2 51.1833 46.0785 51.1699 45.9975H49.2256C49.2459 46.1326 49.2796 46.3486 49.3539 46.5243C49.6847 47.267 50.5489 47.8343 52.5537 47.8343C54.7072 47.8343 55.8008 47.2266 55.8008 46.1056Z" fill="white"/>
<path fill-rule="evenodd" clip-rule="evenodd" d="M42.3213 46.2543C42.3213 46.6189 42.2199 46.9769 42.0174 47.2132C41.7069 47.5914 41.1263 47.7534 40.3771 47.7534H35.6719V42.4521H40.2488C40.9779 42.4521 41.4437 42.6279 41.7002 42.8912C41.9297 43.1207 42.031 43.4247 42.031 43.769C42.031 44.1136 41.95 44.3972 41.7745 44.6064C41.6326 44.7822 41.3897 44.9171 41.1332 44.951C41.5112 44.9981 41.869 45.1873 42.0715 45.4506C42.2402 45.6464 42.3213 45.9436 42.3213 46.2543ZM40.0463 44.3972C40.1137 44.3228 40.1543 44.2147 40.1543 44.0865C40.1543 43.9582 40.1137 43.8501 40.026 43.7759C39.9316 43.688 39.7559 43.6542 39.4994 43.6542H37.4405V44.5187H39.5467C39.7762 44.5187 39.9519 44.4849 40.0463 44.3972ZM39.7425 46.5515C40.0597 46.5515 40.2488 46.5108 40.3568 46.4097C40.4243 46.342 40.4513 46.2408 40.4513 46.1124C40.4513 45.9774 40.4175 45.8762 40.3365 45.7951C40.2354 45.7073 40.0597 45.6667 39.7628 45.6667H37.4405V46.5515H39.7425Z" fill="white"/>
<path d="M48.6775 46.4367V47.7534H43.0947V42.4521H48.6302V43.7759H44.8768V44.4579H48.5222V45.7478H44.8768V46.4367H48.6775Z" fill="white"/>
<path d="M62.3673 42.4521V43.7826H60.126V47.7534H58.2765V43.7826H56.042V42.4521H62.3673Z" fill="white"/>
<path d="M78.5234 42.4517V43.7956H74.9253V44.5452H78.3546V45.8757H74.9253V47.7529H73.1094V42.4517H78.5234Z" fill="white"/>
<path d="M87.671 43.7826V42.4521H81.3457V43.7826H83.5802V47.7534H85.4299V43.7826H87.671Z" fill="white"/>
<path d="M94.5695 42.4521V47.7534H92.7602V45.8288H90.0464V47.7534H88.2373V42.4521H90.0464V44.3836H92.7602V42.4521H94.5695Z" fill="white"/>
<path d="M101.223 47.7534V46.4367H97.4227V45.7478H101.068V44.4579H97.4227V43.7759H101.176V42.4521H95.6406V47.7534H101.223Z" fill="white"/>
<path d="M112.416 42.4521H114.164L112.227 47.7534H110.243C110.243 47.7534 109.182 44.5863 109.175 44.4984C109.17 44.5863 108.102 47.7534 108.102 47.7534H106.124L104.14 42.4521H106.103C106.103 42.4521 107.252 45.7882 107.252 45.8693C107.252 45.7882 108.312 42.4521 108.312 42.4521H110.209C110.209 42.4521 111.276 45.7882 111.276 45.8693C111.276 45.7882 112.416 42.4521 112.416 42.4521Z" fill="white"/>
<path fill-rule="evenodd" clip-rule="evenodd" d="M117.63 42.3306C115.294 42.3306 114.065 43.4382 114.065 45.0657C114.065 46.9025 115.354 47.8343 117.63 47.8343C120.135 47.8343 121.187 46.7539 121.187 45.0657C121.187 43.3504 119.999 42.3306 117.63 42.3306ZM117.63 46.477C116.3 46.477 115.915 45.9299 115.915 45.0858C115.915 44.2553 116.334 43.7082 117.623 43.7082C119.035 43.7082 119.351 44.3227 119.351 45.0858C119.351 45.8962 118.966 46.477 117.63 46.477Z" fill="white"/>
<path fill-rule="evenodd" clip-rule="evenodd" d="M127.872 42.9925C128.114 43.2424 128.229 43.5868 128.229 44.0662C128.229 44.4782 128.128 44.8293 127.959 45.0658C127.77 45.3224 127.48 45.5385 127.122 45.5924L128.721 47.7534H126.71L125.394 45.8829H123.754V47.7534H121.951V42.4521H126.17C127.007 42.4521 127.554 42.6549 127.872 42.9925ZM126.414 44.512C126.46 44.4309 126.474 44.3228 126.474 44.2351C126.474 44.1337 126.46 44.0258 126.414 43.9582C126.319 43.7826 126.13 43.7353 125.845 43.7353H123.761V44.7011H125.879C126.17 44.7011 126.345 44.6471 126.414 44.512Z" fill="white"/>
<path d="M134.358 47.7534V46.342H131.131V42.4521H129.302V47.7534H134.358Z" fill="white"/>
<path fill-rule="evenodd" clip-rule="evenodd" d="M141.517 45.0048C141.517 45.8288 141.436 46.2746 141.194 46.6933C140.829 47.3617 140.107 47.7534 138.83 47.7534H135.077V42.4521H138.79C140.059 42.4521 140.809 42.8101 141.18 43.4247C141.443 43.8367 141.517 44.2755 141.517 45.0048ZM138.486 46.4501C139.06 46.4501 139.384 46.315 139.58 46.018C139.702 45.8355 139.736 45.4101 139.736 45.0387C139.729 44.7011 139.688 44.3431 139.58 44.181C139.37 43.8637 139.054 43.7489 138.5 43.7489H136.887V46.4501H138.486Z" fill="white"/>
<path d="M69.1017 73.5356H66.3044C66.3044 73.5356 64.4791 78.8733 64.4791 79.0029C64.4791 78.8733 62.7726 73.5356 62.7726 73.5356H59.7375C59.7375 73.5356 58.0417 78.8733 58.0417 79.0029C58.0417 78.8733 56.2056 73.5356 56.2056 73.5356H53.0625L56.2379 82.0174H59.4026C59.4026 82.0174 61.1091 76.9499 61.1199 76.8096C61.1308 76.9499 62.8264 82.0174 62.8264 82.0174H66.0018L69.1017 73.5356Z" fill="white"/>
<path d="M72.9303 82.0169V73.5352H69.96V82.0169H72.9303Z" fill="white"/>
<path d="M84.4833 73.5352V82.0169H81.5886L77.3871 77.2952V82.0169H74.6006V73.5352H77.6463L81.7181 78.1489V73.5352H84.4833Z" fill="white"/>
<path d="M96.0556 82.0174V73.5356H93.2906V78.1494L89.2187 73.5356H86.1729V82.0174H88.9594V77.2957L93.161 82.0174H96.0556Z" fill="white"/>
<path d="M106.676 79.9104V82.0174H97.7432V73.5356H106.6V75.6534H100.595V76.7447H106.427V78.8084H100.595V79.9104H106.676Z" fill="white"/>
<path fill-rule="evenodd" clip-rule="evenodd" d="M118.09 76.118C118.09 75.3509 117.907 74.7999 117.519 74.4001C117.01 73.8599 116.136 73.5356 114.796 73.5356H108.046V82.0174H110.93V79.0244H113.555L115.661 82.0174H118.88L116.32 78.56C116.892 78.4734 117.356 78.1277 117.66 77.7171C117.928 77.339 118.09 76.7771 118.09 76.118ZM115.282 76.3882C115.282 76.5286 115.261 76.7015 115.185 76.8311C115.077 77.0473 114.796 77.1336 114.332 77.1336H110.941V75.5886H114.277C114.731 75.5886 115.035 75.6642 115.185 75.9451C115.261 76.0532 115.282 76.2261 115.282 76.3882Z" fill="white"/>
<path d="M60.4791 58.5713L59.3078 54.9648L58.1363 58.5713H54.3457L57.4124 60.8001L56.2411 64.4065L59.3078 62.1777L62.3743 64.4065L61.203 60.8001L64.2697 58.5713H60.4791Z" fill="white"/>
<path d="M72.8308 54.9629L74.0261 58.5693H77.8941L74.7649 60.7983L75.9602 64.4046L72.8308 62.1758L69.7016 64.4046L70.8969 60.7983L67.7676 58.5693H71.6355L72.8308 54.9629Z" fill="white"/>
<path d="M87.4421 58.5693L86.247 54.9629L85.0517 58.5693H81.1836L84.313 60.7983L83.1177 64.4046L86.247 62.1758L89.3762 64.4046L88.1809 60.7983L91.3103 58.5693H87.4421Z" fill="white"/>
<path d="M99.6619 54.9629L100.857 58.5693H104.725L101.596 60.7983L102.791 64.4046L99.6619 62.1758L96.5327 64.4046L97.728 60.7983L94.5986 58.5693H98.4668L99.6619 54.9629Z" fill="white"/>
<path d="M114.356 58.5693L113.184 54.9629L112.012 58.5693H108.222L111.288 60.7983L110.118 64.4046L113.184 62.1758L116.25 64.4046L115.08 60.7983L118.146 58.5693H114.356Z" fill="white"/>
<path d="M163.533 16.286C164.654 13.435 164.166 10.1561 163.134 7.39875C162.046 4.49746 160.154 1.6036 157.326 0.0776367C157.185 3.13539 158.119 6.15606 159.139 8.88005C160.057 11.33 161.181 13.94 163.04 15.966C163.326 17.501 163.545 19.0317 163.699 20.5554C163.083 18.9461 162.085 17.4793 160.839 16.2996C159.234 14.78 156.846 13.6079 154.606 14.3011C155.262 16.7789 156.757 19.1545 158.53 20.8208C159.924 22.1324 161.766 23.8129 163.933 23.8791C164.023 26.1221 163.972 28.3445 163.787 30.5368C163.482 28.9326 162.827 27.422 161.879 26.2971C160.578 24.7512 158.648 22.8628 156.185 23.1787C156.32 25.6868 157.321 28.2564 158.713 30.1873C159.818 31.7217 161.28 33.6775 163.354 34.1828C163.023 36.3364 162.56 38.4543 161.972 40.5268C161.967 38.9399 161.617 37.3822 160.922 36.1327C159.942 34.371 158.415 32.1736 155.949 32.0018C155.587 34.4623 156.078 37.1521 157.066 39.2913C157.855 41.0013 158.909 43.1819 160.828 44.0841C160.022 46.3145 159.068 48.4828 157.974 50.5753C158.359 48.7715 158.343 46.8708 157.889 45.1605C157.262 42.8033 155.709 40.3271 153.213 39.6087C152.33 42.2113 152.452 45.1153 152.966 47.7603C153.387 49.9383 154.215 52.4961 156.073 53.9108C154.858 55.8723 153.515 57.7546 152.048 59.5456C152.837 57.7892 153.227 55.868 153.017 54.1093C152.711 51.548 151.993 48.8084 149.378 47.4433C147.894 50.004 147.55 52.8767 147.424 55.714C147.322 58.008 147.652 60.8374 149.246 62.7037C147.493 64.5251 145.604 66.2298 143.587 67.8018C144.889 66.1293 145.802 64.1668 145.994 62.226C146.268 59.4837 146.136 56.4649 143.701 54.4523C141.622 56.6262 140.379 59.8277 139.772 62.6083C139.233 65.0667 138.672 67.9768 139.952 70.3964C137.383 72.0744 134.64 73.5527 131.74 74.8047C133.78 73.3499 135.45 71.3539 136.246 69.293C137.29 66.5922 137.934 63.3735 135.904 60.6684C133.182 62.4123 131.182 65.3874 129.605 68.1012C128.253 70.4298 126.853 73.6436 127.549 76.4167C125.942 76.9617 124.295 77.4403 122.609 77.8485L122.71 78.2627C124.401 77.8528 126.055 77.3726 127.667 76.8261C128.797 80.1648 132.497 81.2681 135.489 81.755C139.752 82.4489 144.829 81.1046 148.469 78.3962C146.547 75.6803 142.628 75.4048 139.673 75.197L139.634 75.1943C136.396 74.9667 132.894 75.2708 129.639 76.1172C133.399 74.6848 136.919 72.8836 140.165 70.7662L140.209 70.8368C141.987 73.7263 145.56 73.8393 148.363 73.6567C152.168 73.4091 156.558 71.0959 159.098 67.8983C156.708 65.8007 153.179 66.3875 150.443 66.8422L150.429 66.8447C147.377 67.3522 144.042 68.4593 141.242 70.1642C141.509 69.9542 141.768 69.7322 142.022 69.4993C144.745 67.5576 147.255 65.3857 149.534 63.0175C149.566 63.0491 149.597 63.0802 149.629 63.1111C151.846 65.324 155.065 64.7402 157.578 64.016C160.95 63.0447 164.445 60.1144 166.121 56.7505C163.524 55.2953 160.42 56.4942 158.007 57.4429C155.354 58.4848 152.549 60.1521 150.392 62.2777C150.614 61.997 150.828 61.7035 151.029 61.3997C153.033 59.1363 154.837 56.7125 156.422 54.1554L156.491 54.198L156.509 54.2091C159.014 55.8218 161.852 54.6508 164.101 53.499C167.153 51.9363 169.607 48.5019 170.666 45.1243C167.958 44.2567 165.284 45.9596 163.204 47.3083C160.927 48.7841 158.622 50.8891 157.04 53.3033C157.156 53.0651 157.266 52.8214 157.366 52.5733C158.886 49.9203 160.177 47.1354 161.222 44.2464L161.277 44.2648L161.285 44.2683C163.564 45.1314 166.101 43.7845 167.755 42.3074C170.054 40.2533 171.676 37.0952 172.055 34.0099C169.679 33.7019 167.439 35.5413 165.909 37.11C164.147 38.917 162.564 41.0525 161.591 43.4249C161.663 43.166 161.725 42.9031 161.776 42.6373C162.661 39.9234 163.331 37.1245 163.773 34.2633L163.84 34.2721C166.241 34.661 168.461 32.8334 169.789 31.0595C171.656 28.5633 172.619 25.1086 172.377 21.9772C169.978 22.1453 168.149 24.4297 166.964 26.278C165.591 28.4185 164.452 30.8412 163.955 33.3759C163.97 33.1732 163.979 32.9694 163.983 32.7649C164.348 29.8523 164.479 26.88 164.359 23.8712C166.811 23.7852 168.627 21.5078 169.563 19.4882C170.899 16.5997 171.115 12.9481 170.223 9.87093C167.888 10.5266 166.585 13.2061 165.817 15.2688C164.931 17.6472 164.313 20.2416 164.308 22.8206C164.181 20.657 163.923 18.476 163.533 16.286Z" fill="white"/>
</g>
<defs>
<clipPath id="clip0_60_388">
<rect width="173" height="83" fill="white"/>
</clipPath>
</defs>
</svg>
